<?xml version="1.0" encoding="UTF-8"?>
<svg height="128px" viewBox="0 0 128 128" width="128px" xmlns="http://www.w3.org/2000/svg" xmlns:xlink="http://www.w3.org/1999/xlink">
    <linearGradient id="a" gradientTransform="matrix(1 0 0 -1 7 -172)" gradientUnits="userSpaceOnUse" x1="-0.000007" x2="111.999992" y1="-212.000015" y2="-212.000015">
        <stop offset="0" stop-color="#77767b"/>
        <stop offset="0.0357143" stop-color="#c0bfbc"/>
        <stop offset="0.0713653" stop-color="#9a9996"/>
        <stop offset="0.928571" stop-color="#9a9996"/>
        <stop offset="0.964286" stop-color="#c0bfbc"/>
        <stop offset="1" stop-color="#77767b"/>
    </linearGradient>
    <filter id="b" height="100%" width="100%" x="0%" y="0%">
        <feColorMatrix in="SourceGraphic" type="matrix" values="0 0 0 0 1 0 0 0 0 1 0 0 0 0 1 0 0 0 1 0"/>
    </filter>
    <mask id="c">
        <g filter="url(#b)">
            <rect fill-opacity="0.5" height="128" width="128"/>
        </g>
    </mask>
    <linearGradient id="d" gradientTransform="matrix(-1 0 0 1 16 -156)" gradientUnits="userSpaceOnUse" x1="-31.093782" x2="-32.359253" y1="201.344055" y2="284.542908">
        <stop offset="0" stop-color="#f6f5f4" stop-opacity="0.5"/>
        <stop offset="1" stop-color="#f6f5f4" stop-opacity="0"/>
    </linearGradient>
    <clipPath id="e">
        <rect height="152" width="192"/>
    </clipPath>
    <linearGradient id="f" gradientTransform="matrix(-1 0 0 1 127 8)" gradientUnits="userSpaceOnUse" x1="66.710762" x2="66.624916" y1="70.108971" y2="92.238159">
        <stop offset="0" stop-color="#33d17a"/>
        <stop offset="1" stop-color="#8ff0a4" stop-opacity="0.023585"/>
    </linearGradient>
    <linearGradient id="g" gradientTransform="matrix(1.018182 0 0 -1 5.96364 -172)" gradientUnits="userSpaceOnUse" x1="2" x2="112" y1="-300" y2="-300">
        <stop offset="0" stop-color="#3d3846"/>
        <stop offset="0.0357143" stop-color="#9a9996"/>
        <stop offset="0.0713653" stop-color="#5e5c64"/>
        <stop offset="0.928571" stop-color="#5e5c64"/>
        <stop offset="0.964286" stop-color="#9a9996"/>
        <stop offset="1" stop-color="#3d3846"/>
    </linearGradient>
    <mask id="h">
        <g filter="url(#b)">
            <rect fill-opacity="0.5" height="128" width="128"/>
        </g>
    </mask>
    <linearGradient id="i" gradientTransform="matrix(-1 0 0 1 16 -156)" gradientUnits="userSpaceOnUse" x1="-32" x2="-32" y1="208" y2="276">
        <stop offset="0" stop-color="#5e5c64"/>
        <stop offset="1" stop-color="#241f31"/>
    </linearGradient>
    <clipPath id="j">
        <rect height="152" width="192"/>
    </clipPath>
    <clipPath id="k">
        <path d="m 16 38 h 96 v 65 h -96 z m 0 0"/>
    </clipPath>
    <mask id="l">
        <g filter="url(#b)">
            <rect fill-opacity="0.5" height="128" width="128"/>
        </g>
    </mask>
    <clipPath id="m">
        <rect height="152" width="192"/>
    </clipPath>
    <linearGradient id="n" gradientTransform="matrix(0 -1 1 0 -167 133)" gradientUnits="userSpaceOnUse" x1="64" x2="74" y1="236" y2="236">
        <stop offset="0" stop-color="#33d17a"/>
        <stop offset="1" stop-color="#c8f8d2"/>
    </linearGradient>
    <path d="m 17 116 h 94 c 4.417969 0 8 -3.582031 8 -8 v -60 c 0 -4.417969 -3.582031 -8 -8 -8 h -94 c -4.417969 0 -8 3.582031 -8 8 v 60 c 0 4.417969 3.582031 8 8 8 z m 0 0" fill="url(#a)"/>
    <path d="m 111 28 h -94 c -4.417969 0 -8 3.582031 -8 8 v 68 c 0 4.417969 3.582031 8 8 8 h 94 c 4.417969 0 8 -3.582031 8 -8 v -68 c 0 -4.417969 -3.582031 -8 -8 -8 z m 0 0" fill="#deddda"/>
    <path d="m 112 32 h -96 c -2.210938 0 -4 1.789062 -4 4 v 68 c 0 2.210938 1.789062 4 4 4 h 96 c 2.210938 0 4 -1.789062 4 -4 v -68 c 0 -2.210938 -1.789062 -4 -4 -4 z m 0 0" fill="#241f31"/>
    <path d="m 112 36 h -96 v 68 h 96 z m 0 0" fill="#3d3846"/>
    <g clip-path="url(#e)" mask="url(#c)" transform="matrix(1 0 0 1 -8 -16)">
        <path d="m 120 52 h -96 v 68 h 96 z m 0 0" fill="url(#d)"/>
    </g>
    <path d="m 56.949219 69 v 34 h -5 v -36 z m -30 2 v 32 h -5 v -36 z m 20 -2 v 34 h -5 v -30 z m 50 9 v 25 h -5 v -27 z m -60 -2 v 27 h -5 v -25 z m 30 4 v 23 h -5 v -27 z m 40 1 v 22 h -5 v -22 z m -20 -2 v 24 h -5 v -24 z m -10 4 v 20 h -5 v -18 z m 0 0" fill="url(#f)"/>
    <path d="m 21.476562 63.351562 c 0.527344 -0.023437 1.039063 0.1875 1.398438 0.582032 l 10.277344 10.984375 l 18.355468 -10.636719 c 0.675782 -0.390625 1.523438 -0.300781 2.101563 0.230469 l 19.089844 17.550781 l 18.574219 -7.929688 c 0.429687 -0.183593 0.914062 -0.191406 1.347656 -0.023437 l 15.390625 6.042969 c 0.601562 0.230468 1.035156 0.769531 1.136719 1.414062 c 0.101562 0.640625 -0.148438 1.289063 -0.652344 1.695313 s -1.1875 0.507812 -1.785156 0.265625 l -14.710938 -5.773438 l -18.960938 8.097656 c -0.644531 0.277344 -1.390624 0.148438 -1.90625 -0.332031 l -18.976562 -17.441406 l -18.445312 10.6875 c -0.71875 0.417969 -1.628907 0.28125 -2.199219 -0.328125 l -11.246094 -12.019531 c -0.492187 -0.511719 -0.640625 -1.265625 -0.378906 -1.929688 c 0.261719 -0.664062 0.882812 -1.109375 1.589843 -1.140625 z m 0 0" fill="#ed333b"/>
    <g fill="#f9f06b">
        <path d="m 107.234375 52.863281 v -1.292969 h -1.058594 v 1.292969 z m -4.675781 0 v -1.292969 h -1.0625 v 1.292969 z m 4.675781 -1.425781 v -1.304688 h -1.058594 v 1.304688 z m -3.503906 0 v -1.304688 h -1.0625 v 1.304688 z m 3.503906 -1.429688 v -1.300781 h -1.058594 v 1.300781 z m -2.339844 -0.007812 v -1.304688 h -1.054687 v 1.304688 z m 2.339844 -1.425781 v -1.304688 h -1.058594 v 1.304688 z m -1.164063 0 v -1.304688 h -1.066406 v 1.304688 z m -1.175781 0 v -1.304688 h -1.054687 v 1.304688 z m -1.164062 0 v -1.304688 h -1.0625 v 1.304688 z m 3.503906 -1.4375 v -1.296875 h -1.058594 v 1.296875 z m -4.675781 0 v -1.304688 h -1.0625 v 1.304688 z m 4.675781 -1.429688 v -1.300781 h -1.058594 v 1.300781 z m -4.675781 0 v -1.300781 h -1.0625 v 1.300781 z m 4.675781 -1.425781 v -1.3125 h -1.058594 v 1.3125 z m -1.164063 -0.007812 v -1.304688 h -1.066406 v 1.304688 z m -1.175781 0 v -1.304688 h -1.054687 v 1.304688 z m -1.164062 0 v -1.304688 h -1.0625 v 1.304688 z m 0 0"/>
        <path d="m 100.621094 52.863281 v -1.292969 h -1.054688 v 1.292969 z m -4.671875 0 v -1.292969 h -1.066407 v 1.292969 z m 4.671875 -1.425781 v -1.304688 h -1.054688 v 1.304688 z m -4.671875 0 v -1.304688 h -1.066407 v 1.304688 z m 4.671875 -1.429688 v -1.300781 h -1.054688 v 1.300781 z m -4.671875 -0.007812 v -1.304688 h -1.066407 v 1.304688 z m 4.671875 -1.425781 v -1.304688 h -1.054688 v 1.304688 z m -1.164063 0 v -1.304688 h -1.0625 v 1.304688 z m -1.171875 0 v -1.304688 h -1.054687 v 1.304688 z m -1.164062 0 v -1.304688 h -1.066406 v 1.304688 z m -1.171875 0 v -1.304688 h -1.066407 v 1.304688 z m 4.671875 -1.4375 v -1.296875 h -1.054688 v 1.296875 z m -4.671875 0 v -1.304688 h -1.066407 v 1.304688 z m 4.671875 -1.429688 v -1.300781 h -1.054688 v 1.300781 z m -4.671875 0 v -1.300781 h -1.066407 v 1.300781 z m 4.671875 -1.425781 v -1.3125 h -1.054688 v 1.3125 z m -4.671875 -0.007812 v -1.304688 h -1.066407 v 1.304688 z m 0 0"/>
        <path d="m 91.675781 52.863281 v -1.292969 h -1.066406 v 1.292969 z m 0 -1.425781 v -1.304688 h -1.066406 v 1.304688 z m 0 -1.4375 v -1.304688 h -1.066406 v 1.304688 z m 0 -1.425781 v -1.304688 h -1.058593 v 1.304688 z m 0 -1.4375 v -1.296875 h -1.058593 v 1.296875 z m 0 -1.429688 v -1.300781 h -1.058593 v 1.300781 z m 2.335938 -1.433593 v -1.304688 h -1.054688 v 1.304688 z m -1.164063 0 v -1.304688 h -1.066406 v 1.304688 z m -1.171875 0 v -1.304688 h -1.058593 v 1.304688 z m -1.164062 0 v -1.304688 h -1.066407 v 1.304688 z m -1.175781 0 v -1.304688 h -1.0625 v 1.304688 z m 0 0"/>
        <path d="m 86.230469 51.4375 v -1.304688 h -1.058594 v 1.304688 z m -1.164063 0 v -1.304688 h -1.066406 v 1.304688 z m 1.164063 -1.4375 v -1.304688 h -1.058594 v 1.304688 z m -1.164063 0 v -1.304688 h -1.066406 v 1.304688 z m 1.164063 -2.863281 v -1.296875 h -1.058594 v 1.296875 z m -1.164063 0 v -1.304688 h -1.066406 v 1.304688 z m 1.164063 -1.429688 v -1.3125 h -1.058594 v 1.3125 z m -1.164063 0 v -1.3125 h -1.066406 v 1.3125 z m 0 0"/>
        <path d="m 79.625 52.863281 v -1.292969 h -1.0625 v 1.292969 z m -1.171875 0 v -1.292969 h -1.054687 v 1.292969 z m -1.164063 0 v -1.292969 h -1.0625 v 1.292969 z m 3.503907 -1.425781 v -1.304688 h -1.058594 v 1.304688 z m -4.675781 0 v -1.304688 h -1.066407 v 1.304688 z m 4.675781 -1.429688 v -1.300781 h -1.058594 v 1.300781 z m -4.675781 -0.007812 v -1.304688 h -1.066407 v 1.304688 z m 4.675781 -1.425781 v -1.304688 h -1.058594 v 1.304688 z m -4.675781 0 v -1.304688 h -1.066407 v 1.304688 z m 4.675781 -1.4375 v -1.296875 h -1.058594 v 1.296875 z m -4.675781 0 v -1.304688 h -1.066407 v 1.304688 z m 4.675781 -1.429688 v -1.300781 h -1.058594 v 1.300781 z m -4.675781 0 v -1.300781 h -1.066407 v 1.300781 z m 4.675781 -1.433593 v -1.304688 h -1.058594 v 1.304688 z m -4.675781 0 v -1.304688 h -1.066407 v 1.304688 z m 0 0"/>
        <path d="m 73.015625 52.863281 v -1.292969 h -1.0625 v 1.292969 z m -1.171875 0 v -1.292969 h -1.058594 v 1.292969 z m -1.164062 0 v -1.292969 h -1.066407 v 1.292969 z m 3.5 -1.425781 v -1.304688 h -1.054688 v 1.304688 z m -4.671876 0 v -1.304688 h -1.066406 v 1.304688 z m 0 -1.4375 v -1.304688 h -1.066406 v 1.304688 z m 3.507813 -1.425781 v -1.304688 h -1.0625 v 1.304688 z m -1.171875 0 v -1.304688 h -1.058594 v 1.304688 z m -1.164062 0 v -1.304688 h -1.066407 v 1.304688 z m 3.5 -1.4375 v -1.296875 h -1.054688 v 1.296875 z m 0 -1.429688 v -1.300781 h -1.054688 v 1.300781 z m -4.671876 0 v -1.300781 h -1.066406 v 1.300781 z m 3.507813 -1.433593 v -1.304688 h -1.0625 v 1.304688 z m -1.171875 0 v -1.304688 h -1.058594 v 1.304688 z m -1.164062 0 v -1.304688 h -1.066407 v 1.304688 z m 0 0"/>
        <path d="m 58.621094 52.863281 v -1.292969 h -1.054688 v 1.292969 z m 2.339844 -1.425781 v -1.296875 h -1.058594 v 1.296875 z m -1.167969 0 v -1.304688 h -1.0625 v 1.304688 z m -1.171875 0 v -1.304688 h -1.054688 v 1.304688 z m -1.164063 0 v -1.304688 h -1.0625 v 1.304688 z m 1.164063 -1.4375 v -1.304688 h -1.054688 v 1.304688 z m -2.335938 0 v -1.304688 h -1.066406 v 1.304688 z m 3.507813 -1.425781 v -1.304688 h -1.0625 v 1.304688 z m -1.171875 0 v -1.304688 h -1.054688 v 1.304688 z m -1.164063 0 v -1.304688 h -1.0625 v 1.304688 z m 3.503907 -1.4375 v -1.296875 h -1.058594 v 1.296875 z m -2.339844 0 v -1.296875 h -1.054688 v 1.296875 z m 1.171875 -1.429688 v -1.300781 h -1.0625 v 1.300781 z m -1.171875 0 v -1.300781 h -1.054688 v 1.300781 z m -1.164063 0 v -1.300781 h -1.0625 v 1.300781 z m -1.171875 0 v -1.300781 h -1.066406 v 1.300781 z m 2.335938 -1.433593 v -1.304688 h -1.054688 v 1.304688 z m 0 0"/>
        <path d="m 53.175781 52.863281 v -1.292969 h -1.054687 v 1.292969 z m -1.164062 0 v -1.292969 h -1.0625 v 1.292969 z m -1.171875 0 v -1.292969 h -1.058594 v 1.292969 z m 1.171875 -1.425781 v -1.304688 h -1.0625 v 1.304688 z m 0 -1.4375 v -1.304688 h -1.0625 v 1.304688 z m 0 -1.425781 v -1.304688 h -1.0625 v 1.304688 z m 0 -1.4375 v -1.296875 h -1.058594 v 1.296875 z m 1.164062 -1.429688 v -1.300781 h -1.054687 v 1.300781 z m -1.164062 0 v -1.300781 h -1.058594 v 1.300781 z m 0 -1.433593 v -1.304688 h -1.058594 v 1.304688 z m 0 0"/>
        <path d="m 44.238281 52.863281 v -1.292969 h -1.066406 v 1.292969 z m 0 -1.425781 v -1.304688 h -1.066406 v 1.304688 z m 3.5 -1.4375 v -1.292969 h -1.054687 v 1.292969 z m -1.164062 0 v -1.292969 h -1.066407 v 1.292969 z m -1.171875 0 v -1.292969 h -1.058594 v 1.292969 z m -1.164063 0 v -1.304688 h -1.066406 v 1.304688 z m -1.175781 0 v -1.304688 h -1.0625 v 1.304688 z m 4.675781 -1.425781 v -1.304688 h -1.054687 v 1.304688 z m -3.5 0 v -1.304688 h -1.066406 v 1.304688 z m 2.335938 -1.4375 v -1.296875 h -1.066407 v 1.296875 z m -2.335938 0 v -1.296875 h -1.066406 v 1.296875 z m 1.164063 -1.429688 v -1.300781 h -1.058594 v 1.300781 z m -1.164063 0 v -1.300781 h -1.066406 v 1.300781 z m 0 -1.433593 v -1.304688 h -1.066406 v 1.304688 z m 0 0"/>
        <path d="m 39.957031 52.863281 v -1.292969 h -1.058593 v 1.292969 z m -1.167969 0 v -1.292969 h -1.0625 v 1.292969 z m 1.167969 -1.425781 v -1.304688 h -1.058593 v 1.304688 z m -1.167969 0 v -1.304688 h -1.0625 v 1.304688 z m 0 0"/>
        <path d="m 33.351562 52.863281 v -1.292969 h -1.0625 v 1.292969 z m -1.171874 0 v -1.292969 h -1.054688 v 1.292969 z m -1.164063 0 v -1.292969 h -1.066406 v 1.292969 z m 3.5 -1.425781 v -1.296875 h -1.054687 v 1.296875 z m -4.671875 0 v -1.304688 h -1.066406 v 1.304688 z m 4.671875 -1.429688 v -1.300781 h -1.054687 v 1.300781 z m -1.164063 0 v -1.300781 h -1.0625 v 1.300781 z m -3.507812 -0.007812 v -1.304688 h -1.066406 v 1.304688 z m 4.671875 -1.425781 v -1.304688 h -1.054687 v 1.304688 z m -2.335937 0 v -1.304688 h -1.054688 v 1.304688 z m -2.335938 0 v -1.304688 h -1.066406 v 1.304688 z m 4.671875 -1.429688 v -1.304687 h -1.054687 v 1.304687 z m -3.5 -0.007812 v -1.296875 h -1.066406 v 1.296875 z m -1.171875 0 v -1.304688 h -1.066406 v 1.304688 z m 4.671875 -1.429688 v -1.300781 h -1.054687 v 1.300781 z m -4.671875 0 v -1.300781 h -1.066406 v 1.300781 z m 3.507812 -1.433593 v -1.304688 h -1.0625 v 1.304688 z m -1.171874 0 v -1.304688 h -1.054688 v 1.304688 z m -1.164063 0 v -1.304688 h -1.066406 v 1.304688 z m 0 0"/>
        <path d="m 26.742188 52.863281 v -1.292969 h -1.066407 v 1.292969 z m -1.171876 0 v -1.292969 h -1.058593 v 1.292969 z m -1.164062 0 v -1.292969 h -1.066406 v 1.292969 z m 3.5 -1.425781 v -1.296875 h -1.054688 v 1.296875 z m -4.675781 0 v -1.304688 h -1.0625 v 1.304688 z m 4.675781 -1.429688 v -1.300781 h -1.054688 v 1.300781 z m -1.164062 0 v -1.300781 h -1.066407 v 1.300781 z m -3.511719 -0.007812 v -1.304688 h -1.0625 v 1.304688 z m 4.675781 -1.425781 v -1.304688 h -1.054688 v 1.304688 z m -2.335938 0 v -1.304688 h -1.058593 v 1.304688 z m -2.339843 0 v -1.304688 h -1.0625 v 1.304688 z m 4.675781 -1.429688 v -1.304687 h -1.054688 v 1.304687 z m -3.5 -0.007812 v -1.296875 h -1.066406 v 1.296875 z m -1.175781 0 v -1.304688 h -1.0625 v 1.304688 z m 4.675781 -1.429688 v -1.300781 h -1.054688 v 1.300781 z m -4.675781 0 v -1.300781 h -1.0625 v 1.300781 z m 3.511719 -1.433593 v -1.304688 h -1.066407 v 1.304688 z m -1.171876 0 v -1.304688 h -1.058593 v 1.304688 z m -1.164062 0 v -1.304688 h -1.066406 v 1.304688 z m 0 0"/>
    </g>
    <path d="m 16 116 h 96 c 4.417969 0 8 -3.582031 8 -8 v -60 c 0 -4.417969 -3.582031 -8 -8 -8 h -96 c -4.417969 0 -8 3.582031 -8 8 v 60 c 0 4.417969 3.582031 8 8 8 z m 0 0" fill="url(#g)"/>
    <path d="m 112 28 h -96 c -4.417969 0 -8 3.582031 -8 8 v 68 c 0 4.417969 3.582031 8 8 8 h 96 c 4.417969 0 8 -3.582031 8 -8 v -68 c 0 -4.417969 -3.582031 -8 -8 -8 z m 0 0" fill="#77767b"/>
    <path d="m 112 32 h -96 c -2.210938 0 -4 1.789062 -4 4 v 68 c 0 2.210938 1.789062 4 4 4 h 96 c 2.210938 0 4 -1.789062 4 -4 v -68 c 0 -2.210938 -1.789062 -4 -4 -4 z m 0 0" fill="#241f31"/>
    <path d="m 112 36 h -96 v 68 h 96 z m 0 0" fill="#3d3846"/>
    <g clip-path="url(#j)" mask="url(#h)" transform="matrix(1 0 0 1 -8 -16)">
        <path d="m 120 52 h -96 v 68 h 96 z m 0 0" fill="url(#i)"/>
    </g>
    <path d="m 27 210 v 64" fill="none" stroke="#5e5c64" stroke-width="1.94028" transform="matrix(-1 0 0 1.0625 132 -187.125)"/>
    <path d="m 39 210 v 64" fill="none" stroke="#5e5c64" stroke-width="1.94028" transform="matrix(-1 0 0 1.0625 132 -187.125)"/>
    <path d="m 51 210 v 64" fill="none" stroke="#5e5c64" stroke-width="1.94028" transform="matrix(-1 0 0 1.0625 132 -187.125)"/>
    <path d="m 63 210 v 64" fill="none" stroke="#5e5c64" stroke-width="1.94028" transform="matrix(-1 0 0 1.0625 132 -187.125)"/>
    <path d="m 75 210 v 64" fill="none" stroke="#5e5c64" stroke-width="1.94028" transform="matrix(-1 0 0 1.0625 132 -187.125)"/>
    <path d="m 87 210 v 64" fill="none" stroke="#5e5c64" stroke-width="1.94028" transform="matrix(-1 0 0 1.0625 132 -187.125)"/>
    <path d="m 99 210 v 64" fill="none" stroke="#5e5c64" stroke-width="1.94028" transform="matrix(-1 0 0 1.0625 132 -187.125)"/>
    <path d="m 111 210 v 64" fill="none" stroke="#5e5c64" stroke-width="1.94028" transform="matrix(-1 0 0 1.0625 132 -187.125)"/>
    <g clip-path="url(#k)">
        <path d="m 15 246 l 7 -3 h 7 l 7 -13 l 7 23 l 7 -8 l 7 11 l 7 -20 l 7 -3 l 7 9 l 7 -18 l 7 14 l 7 -3 l 7 -8 h 7" fill="none" stroke="#57e389" stroke-width="3" transform="matrix(1 0 0 1 0 -170)"/>
    </g>
    <path d="m 69 36 v 68" fill="none" stroke="#ffffff" stroke-width="1.99999"/>
    <g clip-path="url(#m)" mask="url(#l)" transform="matrix(1 0 0 1 -8 -16)">
        <path d="m 77 77 c 2.761719 0 5 2.238281 5 5 s -2.238281 5 -5 5 s -5 -2.238281 -5 -5 s 2.238281 -5 5 -5 z m 0 0"/>
    </g>
    <path d="m 69 59 c 2.761719 0 5 2.238281 5 5 s -2.238281 5 -5 5 s -5 -2.238281 -5 -5 s 2.238281 -5 5 -5 z m 0 0" fill="url(#n)"/>
</svg>
