<svg fill="none" height="128" viewBox="0 0 128 128" width="128" xmlns="http://www.w3.org/2000/svg" xmlns:xlink="http://www.w3.org/1999/xlink">
  <linearGradient id="paint0_linear" gradientUnits="userSpaceOnUse" x1="120" x2="8.00001" y1="40" y2="40">
    <stop offset="0" stop-color="#77767b"/>
    <stop offset=".0357143" stop-color="#c0bfbc"/>
    <stop offset=".0713653" stop-color="#9a9996"/>
    <stop offset=".928571" stop-color="#9a9996"/>
    <stop offset=".964286" stop-color="#c0bfbc"/>
    <stop offset="1" stop-color="#77767b"/>
  </linearGradient>
  <linearGradient id="paint1_linear" gradientUnits="userSpaceOnUse" x1="87.9062" x2="86.6408" y1="29.3441" y2="112.543">
    <stop offset="0" stop-color="#f6f5f4" stop-opacity=".5"/>
    <stop offset="1" stop-color="#f6f5f4" stop-opacity="0"/>
  </linearGradient>
  <linearGradient id="paint2_linear" gradientUnits="userSpaceOnUse" x1="66.7108" x2="66.6249" y1="78.109" y2="100.238">
    <stop offset="0" stop-color="#33d17a"/>
    <stop offset="1" stop-color="#8ff0a4" stop-opacity=".023585"/>
  </linearGradient>
  <path d="m16 116h94c4.418 0 8-3.582 8-8v-60c0-4.4183-3.582-8-8-8h-94c-4.4183 0-8 3.5817-8 8v60c0 4.418 3.5817 8 8 8z" fill="url(#paint0_linear)"/>
  <path d="m110 28h-94c-4.4183 0-8 3.5817-8 8v68c0 4.418 3.5817 8 8 8h94c4.418 0 8-3.582 8-8v-68c0-4.4183-3.582-8-8-8z" fill="#deddda"/>
  <path d="m111 32h-96c-2.2091 0-4 1.7909-4 4v68c0 2.209 1.7909 4 4 4h96c2.209 0 4-1.791 4-4v-68c0-2.2091-1.791-4-4-4z" fill="#241f31"/>
  <path d="m15 36h96v68h-96z" fill="#3d3846"/>
  <path d="m15 36h96v68h-96z" fill="url(#paint1_linear)" opacity=".5"/>
  <path d="m70.0508 69v34h5v-36zm30.0002 2v32h5v-36zm-20.0002-2v34h5v-30zm-50 9v25h5v-27zm60-2v27h5v-25zm-30 4v23h5v-27zm-40 1v22h5v-22zm20-2v24h5v-24zm10 4v20h5v-18z" fill="url(#paint2_linear)"/>
  <path d="m105.524 63.3496c-.261-.0112-.522.0353-.763.1361-.241.1009-.458.2537-.635.4479l-10.2767 10.9824-18.3552-10.6348c-.3294-.1911-.7104-.2717-1.0881-.2303-.3778.0414-.7327.2028-1.0137.4608l-19.0926 17.5527-18.572-7.9316c-.4298-.184-.9137-.1917-1.349-.0215l-15.3902 6.041c-.2215.0847-.4243.2129-.5965.3771s-.3105.3612-.4068.5797c-.0964.2184-.149.454-.1546.693-.0057.239.0356.4768.1214.6997.0859.2228.2147.4263.3789.5987.1642.1723.3606.3102.5779.4055.2173.0954.4512.1463.6881.15.2369.0036.4722-.0401.6922-.1287l14.7109-5.7734 18.959 8.0976c.3161.1349.6639.1755 1.0021.117s.6527-.2136.9062-.4471l18.9746-17.4433 18.4461 10.6875c.3495.2028.7565.2809 1.1554.2217.3989-.0591.7664-.2522 1.0432-.5479l11.2484-12.0195c.241-.2506.405-.5663.473-.909.067-.3426.035-.6976-.093-1.0221-.128-.3246-.347-.6048-.629-.8069-.282-.2022-.617-.3176-.962-.3323z" fill="#ed333b"/>
  <g fill="#f9f06b">
    <path d="m19.7667 52.8639v-1.2949h1.0568v1.2949zm4.6744 0v-1.2949h1.0645v1.2949zm-4.6744-1.4272v-1.3044h1.0568v1.3044zm3.502 0v-1.3044h1.0644v1.3044zm-3.502-1.4273v-1.3043h1.0568v1.3043zm2.3372-.0094v-1.3044h1.0568v1.3044zm-2.3372-1.4272v-1.3044h1.0568v1.3044zm1.1647 0v-1.3044h1.0645v1.3044zm1.1725 0v-1.3044h1.0568v1.3044zm1.1648 0v-1.3044h1.0644v1.3044zm-3.502-1.4367v-1.2949h1.0568v1.2949zm4.6744 0v-1.3043h1.0645v1.3043zm-4.6744-1.4272v-1.3043h1.0568v1.3043zm4.6744 0v-1.3043h1.0645v1.3043zm-4.6744-1.4272v-1.3138h1.0568v1.3138zm1.1647-.0095v-1.3043h1.0645v1.3043zm1.1725 0v-1.3043h1.0568v1.3043zm1.1648 0v-1.3043h1.0644v1.3043z"/>
    <path d="m26.3772 52.8639v-1.2949h1.0568v1.2949zm4.6745 0v-1.2949h1.0644v1.2949zm-4.6745-1.4272v-1.3044h1.0568v1.3044zm4.6745 0v-1.3044h1.0644v1.3044zm-4.6745-1.4273v-1.3043h1.0568v1.3043zm4.6745-.0094v-1.3044h1.0644v1.3044zm-4.6745-1.4272v-1.3044h1.0568v1.3044zm1.1648 0v-1.3044h1.0645v1.3044zm1.1724 0v-1.3044h1.0568v1.3044zm1.1648 0v-1.3044h1.0645v1.3044zm1.1725 0v-1.3044h1.0644v1.3044zm-4.6745-1.4367v-1.2949h1.0568v1.2949zm4.6745 0v-1.3043h1.0644v1.3043zm-4.6745-1.4272v-1.3043h1.0568v1.3043zm4.6745 0v-1.3043h1.0644v1.3043zm-4.6745-1.4272v-1.3138h1.0568v1.3138zm4.6745-.0095v-1.3043h1.0644v1.3043z"/>
    <path d="m35.325 52.8639v-1.2949h1.0645v1.2949zm0-1.4272v-1.3044h1.0645v1.3044zm0-1.4367v-1.3043h1.0645v1.3043zm0-1.4272v-1.3044h1.0567v1.3044zm0-1.4367v-1.2949h1.0567v1.2949zm0-1.4272v-1.3043h1.0567v1.3043zm-2.3372-1.4367v-1.3043h1.0567v1.3043zm1.1647 0v-1.3043h1.0645v1.3043zm1.1725 0v-1.3043h1.0567v1.3043zm1.1647 0v-1.3043h1.0645v1.3043zm1.1725 0v-1.3043h1.0645v1.3043z"/>
    <path d="m40.7708 51.4367v-1.3044h1.0567v1.3044zm1.1647 0v-1.3044h1.0645v1.3044zm-1.1647-1.4367v-1.3043h1.0567v1.3043zm1.1647 0v-1.3043h1.0645v1.3043zm-1.1647-2.8639v-1.2949h1.0567v1.2949zm1.1647 0v-1.3043h1.0645v1.3043zm-1.1647-1.4272v-1.3138h1.0567v1.3138zm1.1647 0v-1.3138h1.0645v1.3138z"/>
    <path d="m47.3736 52.8639v-1.2949h1.0645v1.2949zm1.1725 0v-1.2949h1.0567v1.2949zm1.1647 0v-1.2949h1.0645v1.2949zm-3.5019-1.4272v-1.3044h1.0567v1.3044zm4.6744 0v-1.3044h1.0645v1.3044zm-4.6744-1.4273v-1.3043h1.0567v1.3043zm4.6744-.0094v-1.3044h1.0645v1.3044zm-4.6744-1.4272v-1.3044h1.0567v1.3044zm4.6744 0v-1.3044h1.0645v1.3044zm-4.6744-1.4367v-1.2949h1.0567v1.2949zm4.6744 0v-1.3043h1.0645v1.3043zm-4.6744-1.4272v-1.3043h1.0567v1.3043zm4.6744 0v-1.3043h1.0645v1.3043zm-4.6744-1.4367v-1.3043h1.0567v1.3043zm4.6744 0v-1.3043h1.0645v1.3043z"/>
    <path d="m53.9841 52.8639v-1.2949h1.0645v1.2949zm1.1725 0v-1.2949h1.0568v1.2949zm1.1648 0v-1.2949h1.0644v1.2949zm-3.502-1.4272v-1.3044h1.0568v1.3044zm4.6744 0v-1.3044h1.0645v1.3044zm0-1.4367v-1.3043h1.0645v1.3043zm-3.5097-1.4272v-1.3044h1.0645v1.3044zm1.1725 0v-1.3044h1.0568v1.3044zm1.1648 0v-1.3044h1.0644v1.3044zm-3.502-1.4367v-1.2949h1.0568v1.2949zm0-1.4272v-1.3043h1.0568v1.3043zm4.6744 0v-1.3043h1.0645v1.3043zm-3.5097-1.4367v-1.3043h1.0645v1.3043zm1.1725 0v-1.3043h1.0568v1.3043zm1.1648 0v-1.3043h1.0644v1.3043z"/>
    <path d="m68.3777 52.8639v-1.2949h1.0568v1.2949zm-2.3372-1.4272v-1.2949h1.0567v1.2949zm1.1647 0v-1.3044h1.0645v1.3044zm1.1725 0v-1.3044h1.0568v1.3044zm1.1647 0v-1.3044h1.0645v1.3044zm-1.1647-1.4367v-1.3043h1.0568v1.3043zm2.3372 0v-1.3043h1.0645v1.3043zm-3.5097-1.4272v-1.3044h1.0645v1.3044zm1.1725 0v-1.3044h1.0568v1.3044zm1.1647 0v-1.3044h1.0645v1.3044zm-3.5019-1.4367v-1.2949h1.0567v1.2949zm2.3372 0v-1.2949h1.0568v1.2949zm-1.1725-1.4272v-1.3043h1.0645v1.3043zm1.1725 0v-1.3043h1.0568v1.3043zm1.1647 0v-1.3043h1.0645v1.3043zm1.1725 0v-1.3043h1.0645v1.3043zm-2.3372-1.4367v-1.3043h1.0568v1.3043z"/>
    <path d="m73.8235 52.8639v-1.2949h1.0567v1.2949zm1.1647 0v-1.2949h1.0645v1.2949zm1.1725 0v-1.2949h1.0568v1.2949zm-1.1725-1.4272v-1.3044h1.0645v1.3044zm0-1.4367v-1.3043h1.0645v1.3043zm0-1.4272v-1.3044h1.0645v1.3044zm0-1.4367v-1.2949h1.0568v1.2949zm-1.1647-1.4272v-1.3043h1.0567v1.3043zm1.1647 0v-1.3043h1.0568v1.3043zm0-1.4367v-1.3043h1.0568v1.3043z"/>
    <path d="m82.7635 52.8639v-1.2949h1.0645v1.2949zm0-1.4272v-1.3044h1.0645v1.3044zm-3.502-1.4367v-1.2949h1.0568v1.2949zm1.1648 0v-1.2949h1.0645v1.2949zm1.1725 0v-1.2949h1.0567v1.2949zm1.1647 0v-1.3043h1.0645v1.3043zm1.1725 0v-1.3043h1.0644v1.3043zm-4.6745-1.4272v-1.3044h1.0568v1.3044zm3.502 0v-1.3044h1.0645v1.3044zm-2.3372-1.4367v-1.2949h1.0645v1.2949zm2.3372 0v-1.2949h1.0645v1.2949zm-1.1647-1.4272v-1.3043h1.0567v1.3043zm1.1647 0v-1.3043h1.0645v1.3043zm0-1.4367v-1.3043h1.0645v1.3043z"/>
    <path d="m87.0446 52.8639v-1.2949h1.0567v1.2949zm1.1647 0v-1.2949h1.0645v1.2949zm-1.1647-1.4272v-1.3044h1.0567v1.3044zm1.1647 0v-1.3044h1.0645v1.3044z"/>
    <path d="m93.6474 52.8639v-1.2949h1.0644v1.2949zm1.1724 0v-1.2949h1.0568v1.2949zm1.1648 0v-1.2949h1.0645v1.2949zm-3.502-1.4272v-1.2949h1.0568v1.2949zm4.6744 0v-1.3044h1.0645v1.3044zm-4.6744-1.4273v-1.3043h1.0568v1.3043zm1.1648 0v-1.3043h1.0644v1.3043zm3.5096-.0094v-1.3044h1.0645v1.3044zm-4.6744-1.4272v-1.3044h1.0568v1.3044zm2.3372 0v-1.3044h1.0568v1.3044zm2.3372 0v-1.3044h1.0645v1.3044zm-4.6744-1.4272v-1.3044h1.0568v1.3044zm3.502-.0095v-1.2949h1.0645v1.2949zm1.1724 0v-1.3044h1.0645v1.3044zm-4.6744-1.4272v-1.3044h1.0568v1.3044zm4.6744 0v-1.3044h1.0645v1.3044zm-3.5096-1.4367v-1.3043h1.0644v1.3043zm1.1724 0v-1.3043h1.0568v1.3043zm1.1648 0v-1.3043h1.0645v1.3043z"/>
    <path d="m100.258 52.8639v-1.2949h1.064v1.2949zm1.172 0v-1.2949h1.057v1.2949zm1.165 0v-1.2949h1.065v1.2949zm-3.5018-1.4272v-1.2949h1.0568v1.2949zm4.6748 0v-1.3044h1.064v1.3044zm-4.6748-1.4273v-1.3043h1.0568v1.3043zm1.1648 0v-1.3043h1.064v1.3043zm3.51-.0094v-1.3044h1.064v1.3044zm-4.6748-1.4272v-1.3044h1.0568v1.3044zm2.3368 0v-1.3044h1.057v1.3044zm2.338 0v-1.3044h1.064v1.3044zm-4.6748-1.4273v-1.3043h1.0568v1.3043zm3.5018-.0094v-1.2949h1.065v1.2949zm1.173 0v-1.3044h1.064v1.3044zm-4.6748-1.4273v-1.3043h1.0568v1.3043zm4.6748 0v-1.3043h1.064v1.3043zm-3.51-1.4366v-1.3044h1.064v1.3044zm1.172 0v-1.3044h1.057v1.3044zm1.165 0v-1.3044h1.065v1.3044z"/>
  </g>
</svg>
