<svg id="svg107" enable-background="new" height="128" viewBox="0 0 128 128" width="128" xmlns="http://www.w3.org/2000/svg" xmlns:xlink="http://www.w3.org/1999/xlink">
  <linearGradient id="linearGradient1274" gradientUnits="userSpaceOnUse" x1="-31.093782" x2="-32.359253" y1="201.344058" y2="284.542908">
    <stop id="stop1259" offset="0" stop-color="#f6f5f4" stop-opacity=".5"/>
    <stop id="stop1261" offset="1" stop-color="#f6f5f4" stop-opacity="0"/>
  </linearGradient>
  <linearGradient id="linearGradient1611" gradientUnits="userSpaceOnUse" x1="66.710762" x2="66.624916" y1="70.108971" y2="92.238159">
    <stop id="stop1605" offset="0" stop-color="#33d17a"/>
    <stop id="stop1607" offset="1" stop-color="#8ff0a4" stop-opacity=".023585"/>
  </linearGradient>
  <linearGradient id="linearGradient1674" gradientUnits="userSpaceOnUse" x1="-.000007" x2="111.999995" y1="-212.000013" y2="-212.000013">
    <stop id="stop12" offset="0" stop-color="#77767b"/>
    <stop id="stop14" offset=".03571429" stop-color="#c0bfbc"/>
    <stop id="stop16" offset=".07136531" stop-color="#9a9996"/>
    <stop id="stop18" offset=".9285714" stop-color="#9a9996"/>
    <stop id="stop20" offset=".96428573" stop-color="#c0bfbc"/>
    <stop id="stop22" offset="1" stop-color="#77767b"/>
  </linearGradient>
  <g id="g53" enable-background="new" transform="translate(120 -180)">
    <rect id="rect43" fill="url(#linearGradient1674)" height="76" rx="8" transform="scale(-1)" width="110" x="2" y="-288"/>
    <rect id="rect45" fill="#deddda" height="83.999985" rx="8" width="110" x="-112" y="200.00002"/>
    <g id="g1272" transform="translate(-1)">
      <rect id="rect47" fill="#241f31" height="76" rx="4" width="104" x="-108" y="204.00002"/>
      <path id="path49" d="m-104 208h96v68h-96z" fill="#3d3846"/>
      <path id="path51" d="m-104 208h96v68h-96z" fill="url(#linearGradient1274)" opacity=".5"/>
    </g>
    <path id="rect1509" d="m70.050781 61v34h5v-36zm29.999999 2v32h5v-36zm-19.999999-2v34h5v-30zm-50 9v25h5v-27zm60-2v27h5v-25zm-30 4v23h5v-27zm-40 1v22h5v-22zm20-2v24h5v-24zm10 4v20h5v-18z" fill="url(#linearGradient1611)" transform="translate(-120 180)"/>
    <path id="path1613" d="m-14.476438 235.34961a1.7942366 1.8106811 0 0 0 -1.397349.58398l-10.276905 10.98243-18.355209-10.63477a1.7942366 1.8106811 0 0 0 -2.10183.23047l-19.092592 17.55273-18.571972-7.93164a1.7942366 1.8106811 0 0 0 -1.348964-.0215l-15.390191 6.04101a1.7942366 1.8106811 0 1 0 1.300576 3.375l14.710874-5.77343 18.959049 8.09765a1.7942366 1.8106811 0 0 0 1.908292-.33008l18.974533-17.44336 18.446172 10.6875a1.7942366 1.8106811 0 0 0 2.1986-.32617l11.248469-12.01953a1.7942366 1.8106811 0 0 0 -1.211553-3.07031z" fill="#ed333b" stroke-width=".995449"/>
    <g id="text862" fill="#f9f06b" stroke-width=".28956" transform="matrix(.93236447 0 0 1.1424612 -119.70635 162.64474)">
      <path id="path889" d="m20.885654 54.460617v-1.133421h1.13342v1.133421zm5.013525 0v-1.133421h1.141693v1.133421zm-5.013525-1.249245v-1.141694h1.13342v1.141694zm3.756007 0v-1.141694h1.141694v1.141694zm-3.756007-1.249245v-1.141693h1.13342v1.141693zm2.506762-.0083v-1.141693h1.133421v1.141693zm-2.506762-1.249217v-1.141694h1.13342v1.141694zm1.249244 0v-1.141694h1.141694v1.141694zm1.257518 0v-1.141694h1.133421v1.141694zm1.249245 0v-1.141694h1.141694v1.141694zm-3.756007-1.257518v-1.133421h1.13342v1.133421zm5.013525 0v-1.141694h1.141693v1.141694zm-5.013525-1.249245v-1.141693h1.13342v1.141693zm5.013525 0v-1.141693h1.141693v1.141693zm-5.013525-1.249244v-1.149967h1.13342v1.149967zm1.249244-.0083v-1.141694h1.141694v1.141694zm1.257518 0v-1.141694h1.133421v1.141694zm1.249245 0v-1.141694h1.141694v1.141694z"/>
      <path id="path893" d="m27.975734 54.460617v-1.133421h1.133421v1.133421zm5.013525 0v-1.133421h1.141694v1.133421zm-5.013525-1.249245v-1.141694h1.133421v1.141694zm5.013525 0v-1.141694h1.141694v1.141694zm-5.013525-1.249245v-1.141693h1.133421v1.141693zm5.013525-.0083v-1.141693h1.141694v1.141693zm-5.013525-1.249217v-1.141694h1.133421v1.141694zm1.249245 0v-1.141694h1.141693v1.141694zm1.257517 0v-1.141694h1.133421v1.141694zm1.249245 0v-1.141694h1.141694v1.141694zm1.257518 0v-1.141694h1.141694v1.141694zm-5.013525-1.257518v-1.133421h1.133421v1.133421zm5.013525 0v-1.141694h1.141694v1.141694zm-5.013525-1.249245v-1.141693h1.133421v1.141693zm5.013525 0v-1.141693h1.141694v1.141693zm-5.013525-1.249244v-1.149967h1.133421v1.149967zm5.013525-.0083v-1.141694h1.141694v1.141694z"/>
      <path id="path897" d="m37.572577 54.460617v-1.133421h1.141693v1.133421zm0-1.249245v-1.141694h1.141693v1.141694zm0-1.257518v-1.141693h1.141693v1.141693zm0-1.249244v-1.141694h1.13342v1.141694zm0-1.257518v-1.133421h1.13342v1.133421zm0-1.249245v-1.141693h1.13342v1.141693zm-2.506763-1.257517v-1.141694h1.133421v1.141694zm1.249245 0v-1.141694h1.141694v1.141694zm1.257518 0v-1.141694h1.13342v1.141694zm1.249244 0v-1.141694h1.141694v1.141694zm1.257518 0v-1.141694h1.141694v1.141694z"/>
      <path id="path901" d="m43.413412 53.211372v-1.141694h1.133421v1.141694zm1.249245 0v-1.141694h1.141694v1.141694zm-1.249245-1.257518v-1.141693h1.133421v1.141693zm1.249245 0v-1.141693h1.141694v1.141693zm-1.249245-2.506762v-1.133421h1.133421v1.133421zm1.249245 0v-1.141694h1.141694v1.141694zm-1.249245-1.249245v-1.149967h1.133421v1.149967zm1.249245 0v-1.149967h1.141694v1.149967z"/>
      <path id="path905" d="m50.49522 54.460617v-1.133421h1.141693v1.133421zm1.257517 0v-1.133421h1.133421v1.133421zm1.249245 0v-1.133421h1.141694v1.133421zm-3.756007-1.249245v-1.141694h1.133421v1.141694zm5.013525 0v-1.141694h1.141693v1.141694zm-5.013525-1.249245v-1.141693h1.133421v1.141693zm5.013525-.0083v-1.141693h1.141693v1.141693zm-5.013525-1.249217v-1.141694h1.133421v1.141694zm5.013525 0v-1.141694h1.141693v1.141694zm-5.013525-1.257518v-1.133421h1.133421v1.133421zm5.013525 0v-1.141694h1.141693v1.141694zm-5.013525-1.249245v-1.141693h1.133421v1.141693zm5.013525 0v-1.141693h1.141693v1.141693zm-5.013525-1.257517v-1.141694h1.133421v1.141694zm5.013525 0v-1.141694h1.141693v1.141694z"/>
      <path id="path909" d="m57.5853 54.460617v-1.133421h1.141694v1.133421zm1.257518 0v-1.133421h1.13342v1.133421zm1.249244 0v-1.133421h1.141694v1.133421zm-3.756007-1.249245v-1.141694h1.133421v1.141694zm5.013525 0v-1.141694h1.141694v1.141694zm0-1.257518v-1.141693h1.141694v1.141693zm-3.76428-1.249244v-1.141694h1.141694v1.141694zm1.257518 0v-1.141694h1.13342v1.141694zm1.249244 0v-1.141694h1.141694v1.141694zm-3.756007-1.257518v-1.133421h1.133421v1.133421zm0-1.249245v-1.141693h1.133421v1.141693zm5.013525 0v-1.141693h1.141694v1.141693zm-3.76428-1.257517v-1.141694h1.141694v1.141694zm1.257518 0v-1.141694h1.13342v1.141694zm1.249244 0v-1.141694h1.141694v1.141694z"/>
      <path id="path913" d="m73.022978 54.460617v-1.133421h1.133421v1.133421zm-2.506762-1.249245v-1.133421h1.13342v1.133421zm1.249244 0v-1.141694h1.141694v1.141694zm1.257518 0v-1.141694h1.133421v1.141694zm1.249245 0v-1.141694h1.141693v1.141694zm-1.249245-1.257518v-1.141693h1.133421v1.141693zm2.506762 0v-1.141693h1.141694v1.141693zm-3.76428-1.249244v-1.141694h1.141694v1.141694zm1.257518 0v-1.141694h1.133421v1.141694zm1.249245 0v-1.141694h1.141693v1.141694zm-3.756007-1.257518v-1.133421h1.13342v1.133421zm2.506762 0v-1.133421h1.133421v1.133421zm-1.257518-1.249245v-1.141693h1.141694v1.141693zm1.257518 0v-1.141693h1.133421v1.141693zm1.249245 0v-1.141693h1.141693v1.141693zm1.257517 0v-1.141693h1.141694v1.141693zm-2.506762-1.257517v-1.141694h1.133421v1.141694z"/>
      <path id="path917" d="m78.863814 54.460617v-1.133421h1.13342v1.133421zm1.249244 0v-1.133421h1.141694v1.133421zm1.257518 0v-1.133421h1.133421v1.133421zm-1.257518-1.249245v-1.141694h1.141694v1.141694zm0-1.257518v-1.141693h1.141694v1.141693zm0-1.249244v-1.141694h1.141694v1.141694zm0-1.257518v-1.133421h1.133421v1.133421zm-1.249244-1.249245v-1.141693h1.13342v1.141693zm1.249244 0v-1.141693h1.133421v1.141693zm0-1.257517v-1.141694h1.133421v1.141694z"/>
      <path id="path921" d="m88.452383 54.460617v-1.133421h1.141694v1.133421zm0-1.249245v-1.141694h1.141694v1.141694zm-3.756007-1.257518v-1.13342h1.133421v1.13342zm1.249245 0v-1.13342h1.141694v1.13342zm1.257518 0v-1.13342h1.13342v1.13342zm1.249244 0v-1.141693h1.141694v1.141693zm1.257518 0v-1.141693h1.141694v1.141693zm-5.013525-1.249244v-1.141694h1.133421v1.141694zm3.756007 0v-1.141694h1.141694v1.141694zm-2.506762-1.257518v-1.133421h1.141694v1.133421zm2.506762 0v-1.133421h1.141694v1.133421zm-1.249244-1.249245v-1.141693h1.13342v1.141693zm1.249244 0v-1.141693h1.141694v1.141693zm0-1.257517v-1.141694h1.141694v1.141694z"/>
      <path id="path925" d="m93.043974 54.460617v-1.133421h1.133421v1.133421zm1.249245 0v-1.133421h1.141694v1.133421zm-1.249245-1.249245v-1.141694h1.133421v1.141694zm1.249245 0v-1.141694h1.141694v1.141694z"/>
      <path id="path929" d="m100.12578 54.460617v-1.133421h1.1417v1.133421zm1.25752 0v-1.133421h1.13342v1.133421zm1.24924 0v-1.133421h1.1417v1.133421zm-3.756003-1.249245v-1.133421h1.133423v1.133421zm5.013523 0v-1.141694h1.1417v1.141694zm-5.013523-1.249245v-1.141693h1.133423v1.141693zm1.249243 0v-1.141693h1.1417v1.141693zm3.76428-.0083v-1.141693h1.1417v1.141693zm-5.013523-1.249217v-1.141694h1.133423v1.141694zm2.506763 0v-1.141694h1.13342v1.141694zm2.50676 0v-1.141694h1.1417v1.141694zm-5.013523-1.249245v-1.141694h1.133423v1.141694zm3.756003-.0083v-1.133421h1.1417v1.133421zm1.25752 0v-1.141694h1.1417v1.141694zm-5.013523-1.249245v-1.141693h1.133423v1.141693zm5.013523 0v-1.141693h1.1417v1.141693zm-3.76428-1.257517v-1.141694h1.1417v1.141694zm1.25752 0v-1.141694h1.13342v1.141694zm1.24924 0v-1.141694h1.1417v1.141694z"/>
      <path id="path933" d="m107.21586 54.460617v-1.133421h1.1417v1.133421zm1.25752 0v-1.133421h1.13342v1.133421zm1.24924 0v-1.133421h1.1417v1.133421zm-3.756-1.249245v-1.133421h1.13342v1.133421zm5.01352 0v-1.141694h1.1417v1.141694zm-5.01352-1.249245v-1.141693h1.13342v1.141693zm1.24924 0v-1.141693h1.1417v1.141693zm3.76428-.0083v-1.141693h1.1417v1.141693zm-5.01352-1.249244v-1.141694h1.13342v1.141694zm2.50676 0v-1.141694h1.13342v1.141694zm2.50676 0v-1.141694h1.1417v1.141694zm-5.01352-1.249245v-1.141694h1.13342v1.141694zm3.756-.0083v-1.133421h1.1417v1.133421zm1.25752 0v-1.141694h1.1417v1.141694zm-5.01352-1.249245v-1.141693h1.13342v1.141693zm5.01352 0v-1.141693h1.1417v1.141693zm-3.76428-1.257517v-1.141694h1.1417v1.141694zm1.25752 0v-1.141694h1.13342v1.141694zm1.24924 0v-1.141694h1.1417v1.141694z"/>
    </g>
  </g>
</svg>
