<?xml version="1.0" encoding="UTF-8" standalone="no"?> <svg id="Layer_1" data-name="Layer 1" xmlns="http://www.w3.org/2000/svg" viewBox="0 0 128 128"><defs><style>.cls-1{fill:#2e79bd;}.cls-2{fill:#2d3e50;}</style></defs><title>b</title><path class="cls-1" d="M118.945,25.02378,94.6602,27.111a.63822.63822,0,0,0-.38324,1.10016l6.12605,5.77767-1.35983,1.38795-.90738.926-4.606,4.78165q-2.66223,2.80594-5.30318,5.62517-1.89191,2.02762-3.76253,4.07917-4.47829,4.90137-8.8422,9.91453c-1.44753,1.67638-2.88975,3.36073-4.31068,5.06373-.37784.45235-.75037.91-1.12556,1.365l-1.51938-.85416L44.96023,52.952,41.1764,50.826l-2.71146,2.95362-3.39266,3.696L8.36209,86.56995l5.6092,5.47084,28.90012-27.889h.00266L59.79213,75.15731l8.65062,5.62783,3.13721,2.04091.71844.46566,4.08182-3.57626q2.5066-2.19925,4.936-4.47032c1.62583-1.5114,3.22769-3.04142,4.82423-4.57677q4.78168-4.618,9.42229-9.36373c3.10794-3.15318,6.15734-6.36223,9.19876-9.57661l4.52621-4.85882.612-.66788,1.60036-1.74654,5.84915,5.51652a.63822.63822,0,0,0,1.07528-.43187L119.63707,25.692A.63819.63819,0,0,0,118.945,25.02378Z"/><path class="cls-2" d="M14.0931,124.06753a2.09074,2.09074,0,0,0,2.08768,2.0877H30.65223a2.09077,2.09077,0,0,0,2.0877-2.0877V81.84173L14.0931,99.83615Z"/><path class="cls-2" d="M39.95192,74.88121v49.18632a2.09074,2.09074,0,0,0,2.08768,2.0877H56.51105a2.09076,2.09076,0,0,0,2.08768-2.0877V81.17272L43.565,71.39382Z"/><path class="cls-2" d="M72.814,90.41072,65.81074,85.8629v38.20463a2.09074,2.09074,0,0,0,2.08768,2.0877H82.36987a2.09076,2.09076,0,0,0,2.08768-2.0877V80.10042c-1.3902,1.28819-2.84447,2.59775-4.32245,3.89543Z"/><path class="cls-2" d="M99.617,65.30158c-2.86583,2.918-5.48492,5.53-7.94743,7.9332v50.83275a2.09074,2.09074,0,0,0,2.08768,2.0877h14.47145a2.09076,2.09076,0,0,0,2.08768-2.0877V54.11823l-1.41867,1.52306C105.95833,58.74673,102.82206,62.05143,99.617,65.30158Z"/><path class="cls-2" d="M72.25548,39.621q-1.34492.98588-5.01058.98993a22.1044,22.1044,0,0,1-6.15064-.83982,31.45325,31.45325,0,0,1-5.01062-1.86225l-2.58035,6.90124a40.84986,40.84986,0,0,0,4.05311,1.65128,27.96852,27.96852,0,0,0,7.10815,1.351v7.14062h7.56254V47.6299a15.90172,15.90172,0,0,0,4.94974-1.558,10.96664,10.96664,0,0,0,3.27007-2.58035,9.2677,9.2677,0,0,0,1.80139-3.266,12.13766,12.13766,0,0,0,.5396-3.57033,10.73107,10.73107,0,0,0-.92909-4.617,10.59266,10.59266,0,0,0-2.58037-3.44859,18.25977,18.25977,0,0,0-3.89894-2.61282,44.11272,44.11272,0,0,0-4.89293-2.10565q-1.74054-.60254-2.96985-1.11168a13.189,13.189,0,0,1-2.06914-1.0508,3.62306,3.62306,0,0,1-1.22934-1.22932,3.27232,3.27232,0,0,1-.39353-1.65124,3.0231,3.0231,0,0,1,1.26177-2.51951,6.92631,6.92631,0,0,1,4.14238-.96156,24.34767,24.34767,0,0,1,5.48932.60046,27.7658,27.7658,0,0,1,4.58867,1.44029l1.86223-7.20148A24.07539,24.07539,0,0,0,77.59879,8.9854a34.19813,34.19813,0,0,0-5.3717-.90071V1.84477H64.66455V8.32814a15.06548,15.06548,0,0,0-4.56026,1.52952,9.86878,9.86878,0,0,0-4.8889,5.87883,12.70566,12.70566,0,0,0-.572,3.80969,9.21034,9.21034,0,0,0,3.39179,7.5017,15.757,15.757,0,0,0,3.42018,2.13q1.89269.87026,3.87055,1.59042c1.35915.48282,2.56008.92909,3.60276,1.351A15.53469,15.53469,0,0,1,71.509,33.40951a5.34412,5.34412,0,0,1,1.558,1.46872,3.43251,3.43251,0,0,1,.5396,1.95148A3.25988,3.25988,0,0,1,72.25548,39.621Z"/></svg>